<svg xmlns="http://www.w3.org/2000/svg"  viewBox="0 0 64 64" width="64px" height="64px"><path d="M 33.03125 2 C 26.910753 2 22.834833 5.7884243 20.400391 9.4453125 C 18.222254 12.717192 17.374856 15.6184 17.193359 16.269531 C 16.945243 16.352481 16.839693 16.345311 16.476562 16.568359 C 15.817462 16.973212 15 17.796441 15 19 L 15 21 A 1.0001 1.0001 0 0 0 15.041016 21.294922 C 13.208837 22.563769 12 24.644638 12 27.005859 C 12 29.064275 12.921673 30.915101 14.369141 32.195312 C 13.531945 32.965711 13 34.043814 13 35.25 C 13 36.116867 13.209325 36.988935 13.615234 37.767578 C 13.50739 37.893309 13.415285 37.98538 13.292969 38.152344 C 12.837468 38.77411 12.271971 39.718512 11.773438 41.048828 C 11.761188 41.081528 11.574868 41.413352 11.3125 41.792969 C 11.050132 42.172585 10.713301 42.640127 10.378906 43.160156 C 9.7101176 44.200216 9 45.450017 9 46.886719 A 1.0001 1.0001 0 0 0 9.0957031 47.314453 C 9.0957031 47.314453 9.7339156 48.603688 11.332031 49.753906 C 12.13401 50.331118 13.189368 50.894284 14.541016 51.3125 C 14.883828 52.542399 15.688616 53.951805 17.369141 54.792969 C 17.645745 55.305698 18.183852 56.356817 19.433594 57.257812 C 19.869068 57.571766 20.392943 57.857537 21 58.107422 L 21 62 A 1.0001 1.0001 0 0 0 22 63 L 48.847656 63 A 1.0001 1.0001 0 0 0 49.783203 62.640625 A 1.0001 1.0001 0 0 0 49.789062 62.632812 A 1.0001 1.0001 0 0 0 49.832031 62.572266 A 1.0001 1.0001 0 0 0 49.884766 62.488281 A 1.0001 1.0001 0 0 0 49.949219 61.646484 C 48.839342 57.461045 47.292514 47.374321 47.060547 45.847656 C 49.527055 45.395267 51 43.667607 51 42 C 51 40.783356 50.758304 39.59902 50.115234 38.636719 C 49.856885 38.250119 49.517074 37.913139 49.119141 37.644531 L 49.9375 34.376953 L 52 30.767578 L 52 36 A 1.0001 1.0001 0 1 0 54 36 L 54 27 A 1.0001 1.0001 0 0 0 52.130859 26.503906 L 52.005859 26.722656 C 52.993672 23.36408 53 20.540775 53 18.085938 C 53 14.130372 51.721125 11.050775 49.802734 8.7675781 C 47.884344 6.4843816 45.364956 4.9898398 42.888672 3.9980469 C 37.936104 2.014461 33.037109 2 33.037109 2 A 1.0001 1.0001 0 0 0 33.03125 2 z M 33.025391 4 C 33.025391 4 37.613099 4.040555 42.144531 5.8554688 C 44.410247 6.7629257 46.633375 8.1031188 48.271484 10.052734 C 49.909594 12.00235 51 14.552503 51 18.085938 C 51 20.611768 50.987781 23.236366 50 26.427734 L 50 26 A 1.0001 1.0001 0 0 0 48.970703 25 A 1.0001 1.0001 0 0 0 48.130859 25.503906 L 44.130859 32.503906 A 1.0007574 1.0007574 0 1 0 45.869141 33.496094 L 48 29.767578 L 48 33.875 L 47.214844 37.013672 C 47.142992 37.009719 47.073141 37 47 37 C 44.270651 37 43.089844 39.585938 43.089844 39.585938 A 1.0001 1.0001 0 1 0 44.910156 40.414062 C 44.910156 40.414062 45.545349 39 47 39 C 47.751545 39 48.119195 39.248348 48.453125 39.748047 C 48.787055 40.247746 49 41.064644 49 42 C 49 42.402897 48.220717 44.039064 45.919922 44.039062 A 1.0001 1.0001 0 0 0 44.929688 45.1875 C 44.929688 45.1875 46.517635 55.683079 47.785156 61 L 23 61 L 23 58.701172 C 23.955969 58.889725 25.065191 59 26.357422 59 C 31.433445 59 34.259647 56.828477 35.617188 54.625 C 36.933634 52.488221 36.958208 50.411604 36.958984 50.283203 C 36.970224 50.197163 37.16391 48.66557 36.529297 46.695312 C 35.876687 44.669182 34.322055 42.153088 30.974609 40.232422 C 26.19996 37.492083 19.170096 37.987468 18.998047 38 L 17 38 C 16.402575 38 15.974975 37.727024 15.603516 37.210938 C 15.232056 36.694851 15 35.936076 15 35.25 C 15 34.039385 16.06219 33 17.433594 33 L 24.304688 33 C 25.810328 35.396878 28.470092 37 31.5 37 C 36.18248 37 40 33.18248 40 28.5 C 40 23.81752 36.18248 20 31.5 20 C 28.916208 20 26.600052 21.165471 25.039062 22.994141 C 23.736242 21.182654 21.594422 20 19.175781 20 C 18.417894 20 17.688053 20.118799 17 20.333984 L 17 19 C 17 18.660559 17.182538 18.482835 17.523438 18.273438 C 17.864337 18.064039 18.222656 17.974609 18.222656 17.974609 A 1.0001 1.0001 0 0 0 18.96875 17.25 C 18.96875 17.25 19.838896 13.897799 22.064453 10.554688 C 24.289134 7.2128911 27.725443 4.0025265 33.025391 4 z M 37.613281 6.5859375 A 1.0001 1.0001 0 0 0 36.630859 7.3828125 L 36.199219 9.3359375 A 1.0001 1.0001 0 1 0 38.150391 9.7695312 L 38.583984 7.8164062 A 1.0001 1.0001 0 0 0 37.613281 6.5859375 z M 43.085938 8.6152344 A 1.0001 1.0001 0 0 0 42.205078 9.1269531 L 41.203125 10.857422 A 1.0006493 1.0006493 0 1 0 42.935547 11.859375 L 43.935547 10.126953 A 1.0001 1.0001 0 0 0 43.085938 8.6152344 z M 47.193359 13.037109 A 1.0001 1.0001 0 0 0 46.835938 13.125 L 45.003906 13.923828 A 1.0001 1.0001 0 1 0 45.802734 15.755859 L 47.634766 14.957031 A 1.0001 1.0001 0 0 0 47.193359 13.037109 z M 46.009766 18.869141 A 1.0002746 1.0002746 0 1 0 45.962891 20.869141 L 47.960938 20.916016 A 1.0001 1.0001 0 1 0 48.009766 18.917969 L 46.009766 18.869141 z M 19.175781 22 C 21.248563 22 23.00687 23.178593 23.835938 24.851562 C 23.305618 25.959297 23 27.193427 23 28.5 C 23 29.369557 23.132559 30.20901 23.376953 31 L 17.433594 31 C 17.037133 31 16.657692 31.067809 16.289062 31.164062 L 16.291016 31.162109 C 14.903006 30.258855 14 28.738836 14 27.005859 C 14 24.244582 16.290336 22 19.175781 22 z M 31.5 22 C 35.10152 22 38 24.89848 38 28.5 C 38 32.10152 35.10152 35 31.5 35 C 27.89848 35 25 32.10152 25 28.5 C 25 24.89848 27.89848 22 31.5 22 z M 19.5 26 C 18.672 26 18 26.672 18 27.5 C 18 28.328 18.672 29 19.5 29 C 20.328 29 21 28.328 21 27.5 C 21 26.672 20.328 26 19.5 26 z M 32.5 28 C 31.672 28 31 28.672 31 29.5 C 31 30.328 31.672 31 32.5 31 C 33.328 31 34 30.328 34 29.5 C 34 28.672 33.328 28 32.5 28 z M 14.933594 39.298828 C 15.515198 39.715088 16.208925 40 17 40 L 19.029297 40 L 19.058594 39.998047 C 19.058594 39.998047 26.03411 39.702965 29.978516 41.966797 C 32.91407 43.651131 34.104313 45.685975 34.626953 47.308594 C 35.149593 48.931213 34.978516 50.056641 34.978516 50.056641 L 34.96875 50.128906 L 34.96875 50.199219 C 34.96875 50.199219 34.96125 51.879649 33.916016 53.576172 C 32.870836 55.27274 30.892399 57 26.357422 57 C 23.241725 57 21.568072 56.331566 20.601562 55.634766 C 19.635054 54.937965 19.347855 54.237863 18.988281 53.605469 L 18.816406 53.302734 L 18.492188 53.171875 C 17.65318 52.834335 17.1498 52.345663 16.833984 51.818359 C 17.641878 51.933522 18.521454 52 19.484375 52 C 23.313017 52 25.759232 51.653107 27.285156 51.287109 C 28.048119 51.104111 28.581145 50.91504 28.939453 50.761719 C 29.297761 50.608398 29.542969 50.447266 29.542969 50.447266 A 1.000281 1.000281 0 0 0 28.392578 48.810547 C 28.392578 48.810547 28.394778 48.820047 28.152344 48.923828 C 27.909902 49.02757 27.484397 49.182046 26.818359 49.341797 C 25.486284 49.661299 23.191733 50 19.484375 50 C 15.898346 50 13.759884 49.037641 12.5 48.130859 C 11.388478 47.330859 11.168892 46.807861 11.091797 46.65625 C 11.163357 45.966222 11.516213 45.086749 12.060547 44.240234 C 12.358652 43.776639 12.677524 43.334102 12.957031 42.929688 C 13.236538 42.525272 13.478733 42.197803 13.646484 41.75 C 14.07995 40.593316 14.554251 39.814468 14.90625 39.333984 C 14.918735 39.316943 14.921558 39.31501 14.933594 39.298828 z"/></svg>